:version 1.10
:name ASF
:units
  mass 1
  length 1
  angle deg
:documentation
  ASF file generated by Kaydara
:root
  axis xyz
  order  tx ty tz rx ry rz
  position 0 0 0
  orientation 0 0 0
:bonedata
  begin
    id 1
    name RightUpLegDummy
    direction -1 2.30186e-007 8.31532e-007
    length 4.04083
    axis 0 0 0 xyz
  end
  begin
    id 2
    name RightUpLeg
    direction -0.000919234 -0.999985 0.00544864
    length 17.4221
    axis -3.80308 -0.00076134 -0.0523649 xyz
    dof rx ry rz
  end
  begin
    id 3
    name RightLeg
    direction -0.000919271 -0.999984 -0.00555045
    length 17.1239
    axis 4.00314 0.0181274 -0.183583 xyz
    dof rx ry rz
  end
  begin
    id 4
    name RightFoot
    direction -2.57843e-005 -4.04509e-007 1
    length 6.72091
    axis 8.18909e-005 -0.122003 -0.403008 xyz
    dof rx ry rz
  end
  begin
    id 5
    name RightToes
    direction 0.00116825 -0.014069 0.9999
    length 3.85082
    axis 0.000514414 0.540638 -0.356797 xyz
    dof rx ry rz
  end
  begin
    id 6
    name SpineDummy
    direction 0.0168869 0.966876 -0.254689
    length 6.99894
    axis 0 0 0 xyz
  end
  begin
    id 7
    name Spine
    direction -0.0132008 0.999903 0.00446247
    length 11.1999
    axis -0.00148109 0.00725429 0.756411 xyz
    dof rx ry rz
  end
  begin
    id 8
    name Spine1
    direction 0 0 0
    length 0
    axis -0.000934958 0.0245693 1.46543 xyz
    dof rx ry rz
  end
  begin
    id 9
    name HEadDummy
    direction -0.0255732 0.999672 0.00128215
    length 3.43865
    axis -0.000934958 0.0245693 1.46543 xyz
  end
  begin
    id 10
    name HEad
    direction -0.0472656 0.980052 0.19304
    length 5.12695
    axis -0.000934954 0.0245693 1.46543 xyz
    dof rx ry rz
  end
  begin
    id 11
    name LeftShoulder1Dummy
    direction 0.953098 0.301717 -0.023914
    length 3.68488
    axis -0.000934958 0.0245693 1.46543 xyz
  end
  begin
    id 12
    name LeftShoulder1
    direction 0.962466 0.271167 0.0112566
    length 3.13809
    axis -0.000934958 0.0245693 1.46543 xyz
    dof rx ry rz
  end
  begin
    id 13
    name LeftArm
    direction 0.999943 0.00455037 -0.00961766
    length 11.3419
    axis -23.1648 0.685459 1.22814 xyz
    dof rx ry rz
  end
  begin
    id 14
    name LeftForeArm
    direction 0.999332 0.0131969 0.0340885
    length 8.70632
    axis -9.90633 0.618216 0.0826942 xyz
    dof rx ry rz
  end
  begin
    id 15
    name LeftHand
    direction 0.994373 -0.0366703 0.0993905
    length 5.32135
    axis 0.00675269 0.680415 0.445699 xyz
    dof rx ry rz
  end
  begin
    id 16
    name RightShoulderDummy
    direction -0.967298 0.252589 -0.0230903
    length 3.68488
    axis -0.000934958 0.0245693 1.46543 xyz
  end
  begin
    id 17
    name RightShoulder
    direction -0.975062 0.221602 0.0120823
    length 3.13809
    axis 0.216257 0.0246515 1.45863 xyz
    dof rx ry rz
  end
  begin
    id 18
    name RightArm
    direction -0.99886 -0.00851186 -0.0469687
    length 10.3947
    axis -23.196 0.23503 -0.532632 xyz
    dof rx ry rz
  end
  begin
    id 19
    name RightForeArm
    direction -0.99909 0.00114866 0.0426317
    length 8.68355
    axis -9.91764 -0.134943 0.610517 xyz
    dof rx ry rz
  end
  begin
    id 20
    name RightHand
    direction -0.992888 -0.0489538 0.10852
    length 5.28593
    axis -0.00275396 -0.197403 0.246414 xyz
    dof rx ry rz
  end
  begin
    id 21
    name LeftUpLegDummy
    direction 1 -2.30186e-007 -8.31532e-007
    length 4.04083
    axis 0 0 0 xyz
  end
  begin
    id 22
    name LeftUpLeg
    direction -0.000920097 -1 2.79241e-006
    length 17.4221
    axis -3.48782 0.00143434 -0.0532288 xyz
    dof rx ry rz
  end
  begin
    id 23
    name LeftLeg
    direction -0.000920097 -1 2.7912e-006
    length 17.1239
    axis 3.68162 -0.00806512 -0.0529896 xyz
    dof rx ry rz
  end
  begin
    id 24
    name LeftFoot
    direction -2.57845e-005 -3.987e-007 1
    length 6.72091
    axis 3.02372e-005 -0.00147829 -0.214229 xyz
    dof rx ry rz
  end
  begin
    id 25
    name LeftToes
    direction 0.00813577 -0.00488255 0.999955
    length 3.85048
    axis 3.89895e-005 -0.0014783 -0.214229 xyz
    dof rx ry rz
  end
:hierarchy
  begin
    root RightUpLegDummy SpineDummy LeftUpLegDummy
    RightUpLegDummy RightUpLeg
    RightUpLeg RightLeg
    RightLeg RightFoot
    RightFoot RightToes
    SpineDummy Spine
    Spine Spine1
    Spine1 HEadDummy LeftShoulder1Dummy RightShoulderDummy
    HEadDummy HEad
    LeftShoulder1Dummy LeftShoulder1
    LeftShoulder1 LeftArm
    LeftArm LeftForeArm
    LeftForeArm LeftHand
    RightShoulderDummy RightShoulder
    RightShoulder RightArm
    RightArm RightForeArm
    RightForeArm RightHand
    LeftUpLegDummy LeftUpLeg
    LeftUpLeg LeftLeg
    LeftLeg LeftFoot
    LeftFoot LeftToes
  end

:SAMPLES-PER-SECOND 30
:FULLY-SPECIFIED
:DEGREES
1
root  -54.09 34.7597 31.0717 -170.053 56.104 -178.916
RightUpLeg  -8.01134 -14.509 -0.167765
RightLeg  6.48626 -0.446602 -0.0207401
RightFoot  3.07805 0.0111193 0.107594
RightToes  -21.4307 -0.0906076 -0.193048
Spine  -2.4345 -0.218644 0.61253
Spine1  -4.94724 -0.377248 1.81588
HEad  -66.0199 -12.7699 4.25055
LeftShoulder1  -1.94126e-019 -3.10601e-018 -2.51263e-017
LeftArm  -10.3893 25.095 -83.9958
LeftForeArm  33.8403 -15.4186 -2.52778
LeftHand  -0.318487 -1.24493 5.71908
RightShoulder  -4.96962e-017 0 -2.36833e-017
RightArm  -30.0727 -25.4463 77.3273
RightForeArm  56.6504 13.9144 1.26211
RightHand  -0.334282 -1.0014 -8.77874
LeftUpLeg  -7.70901 5.3712 2.34388
LeftLeg  6.32985 14.2732 0.65243
LeftFoot  4.47558 -0.04189 1.2503
LeftToes  -18.3765 1.48321e-006 1.01846e-007
2
root  -54.09 34.7571 31.0754 -169.849 56.1647 -178.742
RightUpLeg  -8.06751 -14.4004 -0.0519585
RightLeg  6.45534 -0.490453 -0.0226207
RightFoot  3.11345 0.0111193 0.107594
RightToes  -21.4947 -0.0906076 -0.193048
Spine  -2.44213 -0.212997 0.644113
Spine1  -4.96148 -0.363903 1.87537
HEad  -67.0037 -14.1592 4.32996
LeftShoulder1  -1.94126e-019 -3.10601e-018 -2.51263e-017
LeftArm  -10.3618 25.0906 -83.9191
LeftForeArm  33.853 -15.5746 -2.55686
LeftHand  -0.323508 -1.25458 5.7996
RightShoulder  -4.96962e-017 0 -2.36833e-017
RightArm  -30.0342 -25.4244 77.3235
RightForeArm  56.6346 13.9297 1.2602
RightHand  -0.334103 -1.00805 -8.78655
LeftUpLeg  -7.74353 5.01183 2.43392
LeftLeg  6.31292 14.7254 0.668368
LeftFoot  4.40391 -0.0431135 1.26932
LeftToes  -18.2512 1.48321e-006 1.01846e-007
3
root  -54.09 34.7371 31.0763 -169.816 56.1801 -178.672
RightUpLeg  -8.23994 -14.3132 -0.0212275
RightLeg  6.85623 -0.560034 -0.029901
RightFoot  2.91743 0.0111193 0.107594
RightToes  -21.4444 -0.0906076 -0.193048
Spine  -2.48387 -0.288817 0.425217
Spine1  -5.05124 -0.515735 1.40913
HEad  -67.9323 -15.8146 5.13112
LeftShoulder1  -1.94126e-019 -3.10601e-018 -2.51263e-017
LeftArm  -10.2718 25.4476 -83.092
LeftForeArm  34.0935 -17.0721 -2.8588
LeftHand  -0.332649 -1.27592 5.94253
RightShoulder  -4.96962e-017 0 -2.36833e-017
RightArm  -29.3308 -25.6999 77.9715
RightForeArm  55.9569 14.1722 1.23601
RightHand  -0.326434 -1.05721 -8.67426
LeftUpLeg  -7.887 5.03975 2.46135
LeftLeg  6.69019 14.6792 0.762082
LeftFoot  4.84637 -0.0499159 1.37506
LeftToes  -21.4384 1.48321e-006 1.01846e-007
4
root  -54.09 34.7401 31.0753 -169.808 56.1855 -178.677
RightUpLeg  -8.24479 -14.2886 -0.0212333
RightLeg  6.83722 -0.58484 -0.0310805
RightFoot  2.93816 0.0111193 0.107594
RightToes  -21.4857 -0.0906076 -0.193048
Spine  -2.46595 -0.305341 0.424684
Spine1  -5.01561 -0.547151 1.41112
HEad  -68.9966 -17.6356 5.14775
LeftShoulder1  -1.94126e-019 -3.10601e-018 -2.51263e-017
LeftArm  -10.2965 25.3724 -83.0456
LeftForeArm  34.0353 -17.0963 -2.85727
LeftHand  -0.337922 -1.23528 6.06832
RightShoulder  -4.96962e-017 0 -2.36833e-017
RightArm  -29.169 -25.6518 77.9749
RightForeArm  55.8649 14.2468 1.22734
RightHand  -0.320999 -1.08897 -8.58723
LeftUpLeg  -7.87762 5.0404 2.4685
LeftLeg  6.64415 14.7776 0.755318
LeftFoot  4.5527 -0.0455269 1.30683
LeftToes  -19.8598 1.48321e-006 1.01846e-007
5
root  -54.09 34.7413 31.0702 -169.76 56.2673 -178.654
RightUpLeg  -8.28822 -14.2144 -0.0201877
RightLeg  6.85446 -0.57146 -0.0305161
RightFoot  2.92515 0.0111193 0.107594
RightToes  -21.442 -0.0906076 -0.193048
Spine  -2.47247 -0.29968 0.409612
Spine1  -5.02852 -0.535362 1.38115
HEad  -69.8284 -19.3987 5.39341
LeftShoulder1  -1.94126e-019 -3.10601e-018 -2.51263e-017
LeftArm  -10.3011 25.3707 -82.9576
LeftForeArm  34.0521 -17.2546 -2.88486
LeftHand  -0.331784 -1.20496 5.98529
RightShoulder  -4.96962e-017 0 -2.36833e-017
RightArm  -29.2015 -25.6145 78.01
RightForeArm  55.9119 14.2147 1.23104
RightHand  -0.328496 -1.02196 -8.66319
LeftUpLeg  -7.87328 5.16669 2.44647
LeftLeg  6.61095 14.648 0.740418
LeftFoot  4.78343 -0.0488294 1.35633
LeftToes  -20.9926 1.48321e-006 1.01846e-007
6
root  -54.09 34.7413 31.065 -169.735 56.3846 -178.68
RightUpLeg  -8.3482 -14.092 -0.0419742
RightLeg  6.85515 -0.5766 -0.0308076
RightFoot  2.9342 0.0111193 0.107594
RightToes  -21.4584 -0.0906076 -0.193048
Spine  -2.48476 -0.287655 0.394039
Spine1  -5.053 -0.510456 1.35022
HEad  -70.4318 -20.912 5.59879
LeftShoulder1  -1.94126e-019 -3.10601e-018 -2.51263e-017
LeftArm  -10.3571 25.3172 -82.9321
LeftForeArm  34.1066 -17.2064 -2.87921
LeftHand  -0.332214 -1.27298 5.9373
RightShoulder  -4.96962e-017 0 -2.36833e-017
RightArm  -29.2297 -25.5574 78.0083
RightForeArm  55.931 14.1783 1.23553
RightHand  -0.328722 -1.02469 -8.67431
LeftUpLeg  -7.88409 5.28005 2.40859
LeftLeg  6.57876 14.6419 0.731965
LeftFoot  4.80509 -0.0492889 1.36181
LeftToes  -21.1047 1.48321e-006 1.01846e-007
